<?xml version="1.0" encoding="UTF-8"?>
<!DOCTYPE svg PUBLIC "-//W3C//DTD SVG 1.1//EN" "http://www.w3.org/Graphics/SVG/1.1/DTD/svg11.dtd">
<!-- Creator: CorelDRAW 2020 (64-Bit) -->
<svg xmlns="http://www.w3.org/2000/svg" xml:space="preserve" width="101.6mm" height="59.2666mm" version="1.1" style="shape-rendering:geometricPrecision; text-rendering:geometricPrecision; image-rendering:optimizeQuality; fill-rule:evenodd; clip-rule:evenodd"
viewBox="0 0 10160 5926.66"
 xmlns:xlink="http://www.w3.org/1999/xlink"
 xmlns:xodm="http://www.corel.com/coreldraw/odm/2003">
 <defs>
  <style type="text/css">
   <![CDATA[
    .str0 {stroke:#0D6EFD;stroke-width:20;stroke-miterlimit:22.9256}
    .fil0 {fill:#0D6EFD}
    .fil1 {fill:white}
   ]]>
  </style>
 </defs>
 <g id="Layer_x0020_1">
  <metadata id="CorelCorpID_0Corel-Layer"/>
  <circle class="fil0 str0" cx="2609.48" cy="3177.09" r="1543.4"/>
  <path class="fil1" d="M1657.37 2455.14c55.25,29.23 106.65,58.58 160.53,90.97l118.35 67.29c17.89,10.75 22.49,16.26 44.48,21.38 0,251.5 0,503 0,754.49 0,30 -0.4,60.16 -0.29,90.11 0.29,75.17 30.58,68.1 150.3,137.13 41.34,23.84 80.49,43.58 122.89,68.73 41.08,24.36 85.23,44.47 122.31,69.3l0 371.26 -536.87 -307.45c-27.47,-15.01 -156.34,-93.83 -181.7,-99.74l0 -1263.47zm359.14 -317.36l0.21 0c30.43,0.22 331.63,181.51 370.9,203.89 62.66,35.7 60.31,30.31 60.18,125.44 -0.34,253.49 0,507 0,760.49l323.35 -185.63 0 -443.12 419.17 -239.52c40.84,0 290.76,153.4 342.47,184.48 18.95,11.39 37.21,22.25 56.97,32.85 22.12,11.85 37.69,13.85 37.69,46.15l0 431.13c0,40.07 -36.89,47.78 -84.99,76.7l-205.88 117.47c-22.53,13.32 -84.28,51.97 -104.35,57.33 0,127.65 -0.98,255.68 0.05,383.28 0.35,43.26 7.13,55.79 -19.3,76.51l-666.82 381.08c-123.76,73.2 -119.68,88.34 -185.66,48.82 -175.1,-104.89 -369.15,-207.45 -544.89,-311.4 -42.42,-25.09 -80.57,-45.76 -122,-69.62 -18.97,-10.92 -41.48,-24.62 -60.54,-35.26 -21.9,-12.23 -41.57,-13.87 -41.57,-48.26l0 -1341.32c0,-18.75 28.38,-31.58 43.95,-39.89l267.12 -152.03c23.93,-13.78 93.85,-59.35 113.94,-59.57zm431.29 1982.03l0 -371.26c34.12,-7.95 637.64,-358.37 718.57,-401.19l0 365.27 -266.03 153.14c-32.24,19.07 -59.19,34.29 -91.41,52.29 -23.57,13.18 -334.87,195.63 -361.13,201.75zm-359.29 -610.78c21.75,-5.06 230.9,-129.33 257.49,-143.71l388.08 -222.71c89.05,-53.53 63.81,-42.5 128.95,-6.89 45.15,24.68 86.8,48.61 129.34,74.26 20.42,12.31 41.62,24.71 64.36,37.43 22.17,12.39 44.13,28.58 67.72,34.08l0 11.97c-31.11,7.25 -696.56,398.34 -712.55,398.61l-195.79 -107.04c-22.22,-12.42 -113.71,-57.05 -127.6,-76zm-35.92 -59.88l0 -808.38 159.62 -91.87c56.64,-30.95 108.43,-64.5 163.73,-93.76l0 814.37c-27.96,14.8 -51.83,28.46 -80.39,45.36 -29.71,17.57 -216.72,128.17 -242.96,134.28zm1179.64 -221.55l0 -365.27c24.65,-16.51 51.63,-30.37 79.7,-46.06l243.66 -139.57 0 371.26 -323.36 179.64zm-395.21 -550.9c112.14,59.33 217.85,126.63 329.35,185.63l0 365.27c-19.73,-5.27 -60.11,-32.14 -81.78,-43.98l-247.57 -141.65 0 -365.27zm41.92 -65.87c19.8,-5.29 58.44,-31.41 77.84,-41.92l239.53 -137.72 278.87 158.25c17.89,10.76 22.5,16.27 44.48,21.39l0 11.98c-20.74,4.83 -62.54,30.96 -82.68,43.06l-240.67 136.58 -317.37 -191.62zm-1179.65 -221.56l317.37 -179.64c56.75,30.03 106.4,62.44 163.73,93.76 28.74,15.69 147.08,79.13 159.62,97.86 -20.02,4.67 -25.02,9.38 -40.8,19.07 -14.72,9.05 -26.96,15.03 -41.88,24l-240.67 136.57 -317.37 -191.62z"/>
 </g>
</svg>
